<svg width="66" height="45" viewBox="0 0 66 45" fill="none" xmlns="http://www.w3.org/2000/svg">
<path fill-rule="evenodd" clip-rule="evenodd" d="M20.7803 29.5455H17.0493L19.383 15.6182H23.1138L20.7803 29.5455Z" fill="white"/>
<path fill-rule="evenodd" clip-rule="evenodd" d="M34.3053 15.9582C33.5694 15.6764 32.4022 15.3652 30.9589 15.3652C27.2744 15.3652 24.6798 17.2616 24.6639 19.9729C24.6333 21.9732 26.5215 23.0843 27.9338 23.7513C29.3773 24.4328 29.868 24.8777 29.868 25.4852C29.8533 26.4182 28.7016 26.8483 27.6274 26.8483C26.1378 26.8483 25.3396 26.6266 24.1267 26.1075L23.6354 25.8849L23.1133 29.0113C23.9884 29.3961 25.6006 29.7376 27.2744 29.7526C31.1893 29.7526 33.7379 27.8855 33.7681 24.9962C33.783 23.4108 32.786 22.196 30.6363 21.2033C29.3314 20.566 28.5322 20.1363 28.5322 19.4843C28.5475 18.8916 29.2082 18.2844 30.6812 18.2844C31.8942 18.2547 32.7854 18.5361 33.4605 18.8177L33.7979 18.9656L34.3053 15.9582Z" fill="white"/>
<path fill-rule="evenodd" clip-rule="evenodd" d="M40.9837 15.6182H43.8697L46.8797 29.5453H43.4251C43.4251 29.5453 43.0871 27.9451 42.9799 27.4561H38.1896C38.0511 27.8263 37.4066 29.5453 37.4066 29.5453H33.4917L39.0337 16.7737C39.4176 15.8698 40.0938 15.6182 40.9837 15.6182ZM40.7538 20.7152C40.7538 20.7152 39.5714 23.8119 39.2642 24.612H42.3654C42.2119 23.9156 41.5054 20.5819 41.5054 20.5819L41.2446 19.3818C41.1348 19.6909 40.9761 20.1157 40.8689 20.4023C40.7963 20.5965 40.7475 20.7272 40.7538 20.7152Z" fill="white"/>
<path fill-rule="evenodd" clip-rule="evenodd" d="M13.9328 15.6182L10.2789 25.1152L9.87959 23.1891C9.20406 20.9666 7.08545 18.5519 4.72119 17.3513L8.06804 29.5307H12.0135L17.878 15.6182H13.9328V15.6182Z" fill="white"/>
<path fill-rule="evenodd" clip-rule="evenodd" d="M6.88605 15.6182H0.883189L0.821777 15.8996C5.50438 17.0553 8.60558 19.8412 9.87973 23.1897L8.57478 16.7889C8.35994 15.8994 7.69971 15.6475 6.88605 15.6182Z" fill="white"/>
</svg>
