<svg width="59" height="45" viewBox="0 0 59 45" fill="none" xmlns="http://www.w3.org/2000/svg">
<path fill-rule="evenodd" clip-rule="evenodd" d="M13.9452 22.4985C13.9426 19.2196 15.4378 16.1216 17.9999 14.0971C13.6473 10.6534 7.39676 11.155 3.64102 15.2494C-0.114716 19.3438 -0.114716 25.6562 3.64102 29.7506C7.39676 33.845 13.6473 34.3466 17.9999 30.9029C15.437 28.8778 13.9417 25.7785 13.9452 22.4985Z" fill="white"/>
<path fill-rule="evenodd" clip-rule="evenodd" d="M35.1757 22.5015C35.1756 26.5929 32.8549 30.3251 29.1994 32.1131C25.5438 33.901 21.195 33.4307 18 30.902C20.5608 28.876 22.0559 25.7788 22.0559 22.5C22.0559 19.2212 20.5608 16.124 18 14.098C21.195 11.5693 25.5438 11.099 29.1994 12.8869C32.8549 14.6749 35.1756 18.4071 35.1757 22.4985V22.5015Z" fill="white"/>
</svg>
