<svg width="90" height="48" viewBox="0 0 90 48" fill="none" xmlns="http://www.w3.org/2000/svg">
<path fill-rule="evenodd" clip-rule="evenodd" d="M22.2131 22.7392C22.2131 18.1341 18.3445 14.4004 13.5729 14.4004C8.80025 14.4004 4.93164 18.1341 4.93164 22.7392C4.93164 27.3444 8.80025 31.0781 13.5729 31.0781C18.3445 31.0781 22.2131 27.3444 22.2131 22.7392ZM16.5103 20.6548C17.6113 20.6069 18.5469 21.4207 18.6132 22.4825C18.6426 23.4344 18.5654 24.3874 18.3826 25.3241C18.276 26.1955 17.6026 26.9016 16.7116 27.0757C14.7131 27.3183 12.6907 27.3183 10.6922 27.0757C9.69781 26.9136 8.91234 26.1749 8.71978 25.2197C8.46738 23.5846 8.46738 21.9222 8.71978 20.286C8.84597 19.3841 9.53136 18.6487 10.4474 18.4311C12.0597 18.1526 13.71 18.1526 15.3223 18.4311C16.0414 18.6226 16.5506 19.2405 16.5821 19.9596H11.0523C10.8532 19.9596 10.6922 20.1152 10.6922 20.3067C10.6922 20.4992 10.8532 20.6548 11.0523 20.6548H16.5103ZM16.8128 23.9555V23.6498C16.9259 23.5497 16.9912 23.4083 16.9923 23.2604C16.9923 22.9721 16.7507 22.7392 16.4527 22.7392C16.1546 22.7392 15.913 22.9721 15.913 23.2604C15.9109 23.4094 15.9761 23.5519 16.0926 23.6498V23.9555C16.0926 24.147 16.2536 24.3026 16.4527 24.3026C16.6517 24.3026 16.8128 24.147 16.8128 23.9555Z" fill="white"/>
<path d="M46.8245 21.8012C46.8364 20.3391 45.618 19.1445 44.1025 19.1326C42.587 19.1217 41.3501 20.2966 41.3381 21.7588C41.3262 23.2209 42.5446 24.4166 44.0601 24.4274C44.0742 24.4274 44.0884 24.4274 44.1025 24.4274C45.5396 24.5025 46.7679 23.4374 46.8451 22.0503C46.8495 21.9677 46.8495 21.8839 46.8462 21.8012H46.8245ZM38.6738 21.8012C38.6738 19.0216 40.9486 16.9023 44.1025 16.9023C47.2564 16.9023 49.5323 19.0347 49.5323 21.8012C49.5323 24.5667 47.2781 26.7066 44.1025 26.7066C40.9269 26.7066 38.6738 24.5732 38.6738 21.8012Z" fill="white"/>
<path d="M34.353 22.3085C34.353 23.4552 33.1433 24.3929 31.6104 24.3929C30.2016 24.5311 28.9439 23.54 28.8014 22.1801C28.7873 22.043 28.7851 21.9049 28.7949 21.7667C28.7949 20.2513 29.947 19.209 31.7181 19.209C33.1585 19.209 34.353 20.161 34.353 21.238V22.3085ZM34.4607 16.895V17.9928C33.585 17.2247 32.4242 16.8319 31.2427 16.9027C28.4489 16.9266 26.2057 19.1329 26.2307 21.8287C26.2568 24.5246 28.5425 26.6906 31.3362 26.6656C32.4862 26.7156 33.6056 26.3 34.4248 25.5189V26.4567C34.4248 27.7285 33.288 28.6597 31.7899 28.6597C30.6465 28.7391 29.5194 28.3573 28.6796 27.6034L26.9291 29.2298C28.2411 30.4722 30.0242 31.1402 31.8617 31.0782C34.9296 31.0782 37.0315 29.0905 37.0315 26.4436V16.895H34.4607Z" fill="white"/>
<path d="M51.1172 17.1806H53.6945V18.0009H53.7304C54.5757 17.2567 55.6919 16.8673 56.8342 16.9162C59.6399 17.0185 61.8288 19.2966 61.7232 22.0033C61.6232 24.5686 59.4919 26.6247 56.8342 26.7216C55.743 26.7455 54.6779 26.3995 53.8239 25.7414V30.3835H51.1389L51.1172 17.1806ZM56.4164 19.2095C54.976 19.2095 53.8032 20.1756 53.8032 21.2254V22.3993C53.8032 23.5177 54.9619 24.4424 56.4305 24.4424C57.9286 24.5164 59.2047 23.4056 59.282 21.9609C59.3592 20.5161 58.2082 19.2846 56.7101 19.2095C56.6177 19.2052 56.5241 19.2052 56.4305 19.2095H56.4164Z" fill="white"/>
<path d="M66.8777 20.9061C68.6423 20.6765 69.1677 20.4328 69.1677 19.9607C69.1677 19.3493 68.4987 18.9805 67.4608 18.9805C66.3435 18.8923 65.3263 19.6038 65.063 20.6558L62.5293 20.1478C62.8894 18.2581 64.9053 16.9102 67.389 16.9102C70.198 16.9102 71.9397 18.2994 71.9397 20.5514V26.4511H69.5278V25.4231H69.4919C68.6738 26.3119 67.4739 26.784 66.2445 26.7014C64.1198 26.7014 62.6435 25.5819 62.6435 23.9217C62.6435 22.2605 63.8533 21.3086 66.8777 20.9061ZM69.3842 21.8852H69.3483C69.1101 22.2192 68.6281 22.4139 67.2954 22.6358C65.7191 22.9209 65.1359 23.22 65.1359 23.7618C65.1359 24.3036 65.6037 24.568 66.6188 24.568C68.1669 24.568 69.3625 23.8728 69.3625 22.9905L69.3842 21.8852Z" fill="white"/>
<path d="M76.8005 25.9287L72.3574 17.1797H75.3176L78.2332 23.2394H78.2768L81.1565 17.1797H84.1308L77.4771 30.3826H74.518L76.8005 25.9287Z" fill="white"/>
</svg>
